# Blender v2.78 (sub 0) OBJ File: 'sign.blend'
# www.blender.org
o Sign_Cube
v 1.438643 -0.903975 0.104386
v -1.438643 -0.903975 0.104386
v -1.604004 -1.069337 -0.109482
v 1.604005 -1.069337 -0.109481
v 1.438642 0.903975 0.104386
v -1.438643 0.903975 0.104386
v -1.604004 1.069337 -0.109482
v 1.604005 1.069337 -0.109481
v 1.604005 -1.069337 0.104386
v -1.604005 -1.069337 0.104386
v 1.604004 1.069337 0.104386
v -1.604005 1.069337 0.104386
v 1.438643 -0.903975 0.047688
v -1.438643 -0.903975 0.047688
v 1.438642 0.903975 0.047688
v -1.438643 0.903975 0.047688
v 1.255499 -2.162037 -0.235443
v 1.255499 0.407331 -0.235443
v 1.433499 -2.162037 -0.235443
v 1.433499 0.407331 -0.235443
v 1.255499 -2.162037 -0.057443
v 1.255499 0.407331 -0.057443
v 1.433499 -2.162037 -0.057443
v 1.433499 0.407331 -0.057443
v -1.433500 -2.162037 -0.235440
v -1.433500 0.407331 -0.235440
v -1.255500 -2.162037 -0.235440
v -1.255500 0.407331 -0.235440
v -1.433500 -2.162037 -0.057440
v -1.433500 0.407331 -0.057440
v -1.255500 -2.162037 -0.057440
v -1.255500 0.407331 -0.057440
vt 0.0100 0.7547
vt 0.4900 0.7159
vt 0.0100 0.7159
vt 0.8650 0.0100
vt 0.8225 0.4606
vt 0.8650 0.4606
vt 0.4900 0.5194
vt 0.0100 0.4806
vt 0.0100 0.5194
vt 0.8025 0.0100
vt 0.7600 0.4606
vt 0.8025 0.4606
vt 0.0100 0.0100
vt 0.4900 0.4606
vt 0.4900 0.0100
vt 0.4900 0.5782
vt 0.0100 0.5394
vt 0.0100 0.5782
vt 0.9275 0.4606
vt 0.8850 0.0100
vt 0.8850 0.4606
vt 0.4900 0.6371
vt 0.0100 0.5982
vt 0.0100 0.6371
vt 0.9900 0.0100
vt 0.9475 0.4606
vt 0.9900 0.4606
vt 0.4900 0.6959
vt 0.0100 0.6571
vt 0.0100 0.6959
vt 0.5100 0.0100
vt 0.7400 0.4606
vt 0.7400 0.0100
vt 0.9900 0.7547
vt 0.7600 0.7159
vt 0.7600 0.7547
vt 0.8025 0.4806
vt 0.7600 0.6959
vt 0.8025 0.6959
vt 0.4900 0.8724
vt 0.0100 0.8335
vt 0.0100 0.8724
vt 0.6150 0.4806
vt 0.5725 0.9312
vt 0.6150 0.9312
vt 0.4900 0.9312
vt 0.0100 0.8924
vt 0.0100 0.9312
vt 0.6775 0.4806
vt 0.6350 0.9312
vt 0.6775 0.9312
vt 0.4900 0.9900
vt 0.0100 0.9512
vt 0.0100 0.9900
vt 0.8650 0.4806
vt 0.8225 0.5194
vt 0.8650 0.5194
vt 0.8225 0.6571
vt 0.8650 0.6959
vt 0.8650 0.6571
vt 0.7400 0.4806
vt 0.6975 0.9312
vt 0.7400 0.9312
vt 0.9900 0.9900
vt 0.5100 0.9512
vt 0.5100 0.9900
vt 0.5525 0.4806
vt 0.5100 0.9312
vt 0.5525 0.9312
vt 0.4900 0.8135
vt 0.0100 0.7747
vt 0.0100 0.8135
vt 0.8650 0.5394
vt 0.8225 0.5782
vt 0.8650 0.5782
vt 0.8225 0.5982
vt 0.8650 0.6371
vt 0.8650 0.5982
vt 0.4900 0.7547
vt 0.8225 0.0100
vt 0.4900 0.4806
vt 0.7600 0.0100
vt 0.0100 0.4606
vt 0.4900 0.5394
vt 0.9275 0.0100
vt 0.4900 0.5982
vt 0.9475 0.0100
vt 0.4900 0.6571
vt 0.5100 0.4606
vt 0.9900 0.7159
vt 0.7600 0.4806
vt 0.4900 0.8335
vt 0.5725 0.4806
vt 0.4900 0.8924
vt 0.6350 0.4806
vt 0.4900 0.9512
vt 0.8225 0.4806
vt 0.8225 0.6959
vt 0.6975 0.4806
vt 0.9900 0.9512
vt 0.5100 0.4806
vt 0.4900 0.7747
vt 0.8225 0.5394
vt 0.8225 0.6371
vn 0.5773 -0.5773 0.5773
vn -0.5773 -0.5773 -0.5773
vn 0.5773 -0.5773 -0.5773
vn 0.5773 0.5773 0.5773
vn -0.5773 0.5773 -0.5773
vn -0.5773 0.5773 0.5773
vn 0.3015 -0.3015 0.9045
vn -0.5773 -0.5773 0.5773
vn -0.3015 -0.3015 0.9045
vn 0.5773 0.5773 -0.5773
vn -0.3015 0.3015 0.9045
vn 0.3015 0.3015 0.9045
s 1
f 9/1/1 3/2/2 4/3/3
f 11/4/4 7/5/5 12/6/6
f 6/7/7 15/8/8 5/9/9
f 12/10/6 3/11/2 10/12/8
f 7/13/5 4/14/3 3/15/2
f 9/16/1 8/17/10 11/18/4
f 1/19/11 10/20/8 9/21/1
f 1/22/11 11/23/4 5/24/9
f 6/25/7 10/26/8 2/27/12
f 5/28/9 12/29/6 6/30/7
f 15/31/8 14/32/4 13/33/6
f 5/34/9 13/35/6 1/36/11
f 2/37/12 16/38/1 6/39/7
f 1/40/11 14/41/4 2/42/12
f 18/43/5 19/44/3 17/45/2
f 20/46/10 23/47/1 19/48/3
f 24/49/4 21/50/8 23/51/1
f 22/52/6 17/53/2 21/54/8
f 19/55/3 21/56/8 17/57/2
f 20/58/10 22/59/6 24/60/4
f 26/61/5 27/62/3 25/63/2
f 28/64/10 31/65/1 27/66/3
f 32/67/4 29/68/8 31/69/1
f 30/70/6 25/71/2 29/72/8
f 27/73/3 29/74/8 25/75/2
f 28/76/10 30/77/6 32/78/4
f 9/1/1 10/79/8 3/2/2
f 11/4/4 8/80/10 7/5/5
f 6/7/7 16/81/1 15/8/8
f 12/10/6 7/82/5 3/11/2
f 7/13/5 8/83/10 4/14/3
f 9/16/1 4/84/3 8/17/10
f 1/19/11 2/85/12 10/20/8
f 1/22/11 9/86/1 11/23/4
f 6/25/7 12/87/6 10/26/8
f 5/28/9 11/88/4 12/29/6
f 15/31/8 16/89/1 14/32/4
f 5/34/9 15/90/8 13/35/6
f 2/37/12 14/91/4 16/38/1
f 1/40/11 13/92/6 14/41/4
f 18/43/5 20/93/10 19/44/3
f 20/46/10 24/94/4 23/47/1
f 24/49/4 22/95/6 21/50/8
f 22/52/6 18/96/5 17/53/2
f 19/55/3 23/97/1 21/56/8
f 20/58/10 18/98/5 22/59/6
f 26/61/5 28/99/10 27/62/3
f 28/64/10 32/100/4 31/65/1
f 32/67/4 30/101/6 29/68/8
f 30/70/6 26/102/5 25/71/2
f 27/73/3 31/103/1 29/74/8
f 28/76/10 26/104/5 30/77/6
