# Blender v2.78 (sub 0) OBJ File: 'sign.blend'
# www.blender.org
o Group12742
v 1.431948 -0.551227 -0.170507
v 1.434359 0.407046 -0.059088
v 1.432897 -2.164849 -0.057068
v -1.255477 0.372247 -0.233412
v -1.254496 0.407038 -0.056047
v -1.255828 -2.156569 -0.234637
v 1.593812 -1.070421 0.100801
v 1.598726 -0.641483 0.004391
v 1.603258 0.108961 0.075686
v -1.604005 1.069323 -0.109482
v 0.933693 -0.174118 -0.102721
v -0.970275 0.376241 -0.109412
v 1.256454 -0.734352 -0.195109
v 1.262898 -2.150299 -0.224980
v 1.261937 -2.108993 -0.152799
v -1.432815 -2.162013 -0.094329
v -1.433496 -2.159825 -0.234613
v 1.438656 0.908740 0.047539
v -0.003132 -0.902400 0.049630
v 1.440030 -0.902836 0.104825
v -1.562812 -1.045182 -0.104626
v -0.256541 -1.069337 -0.109482
v -0.746828 0.886383 0.048236
v -0.246803 1.068877 -0.109929
v 0.644098 1.070145 -0.105206
v 1.604047 -0.189734 -0.101666
v -1.603378 1.069281 0.036299
v -1.600504 0.034628 -0.109142
v -1.603274 -0.488159 0.053003
v -1.584976 -1.057783 0.103632
v -1.574319 -1.059750 -0.063685
v 0.307788 1.069322 0.103907
v -1.586791 0.551050 -0.102151
v 1.574985 1.057984 0.102106
v 1.438048 0.904525 0.105433
v -0.420708 1.041021 0.094215
v -1.592289 0.186264 0.107284
v -1.445894 -0.904296 0.105502
v 1.541858 -0.960539 0.104395
v 1.589515 -0.047361 0.102238
v -1.596579 1.058005 0.089503
v -1.432743 0.900697 0.095603
v 1.594443 1.063740 -0.103345
v 1.588807 0.527413 0.096505
v 1.601283 1.067583 0.040362
v 1.425848 0.346949 -0.227452
v 1.257551 0.406786 -0.141527
v 1.256328 0.407228 -0.057032
v 1.433588 -2.162070 -0.233440
v 1.278387 -2.176647 -0.091883
v 1.415934 0.313651 -0.233061
v 1.348309 0.405534 -0.187074
v 1.256913 0.415421 -0.234449
v -1.436690 0.897556 0.038886
v 1.291425 -2.166810 -0.051000
v 1.291991 -1.408807 -0.050259
v -0.242606 -0.332606 -0.102631
v 0.987096 -1.069352 -0.101462
v 1.584221 -1.071930 -0.054593
v 1.265577 -1.421756 -0.086255
v 1.601091 -1.070437 -0.109197
v 1.251878 -2.139460 -0.092067
v 1.266800 -0.470129 -0.196068
v -1.432773 0.402731 -0.154407
v -1.433494 0.407320 -0.057687
v -1.261776 -1.468542 -0.072874
v -1.341172 -2.162016 -0.057738
v -1.255318 -2.162355 -0.057700
v -1.429986 0.376590 -0.235452
v -1.426135 -0.929547 -0.231575
vt 0.2122 0.7678
vt 0.2122 0.6867
vt 0.0200 0.7678
vt 0.2122 0.8233
vt 0.2122 0.7978
vt 0.0200 0.8233
vt 0.9089 0.5456
vt 0.9344 0.5456
vt 0.9344 0.4644
vt 0.6867 0.4344
vt 0.7678 0.2422
vt 0.7678 0.4344
vt 0.7122 0.5756
vt 0.6867 0.7678
vt 0.7122 0.7678
vt 0.2422 0.6567
vt 0.4344 0.5756
vt 0.4344 0.6567
vt 0.2122 0.2422
vt 0.0200 0.4344
vt 0.2122 0.4344
vt 0.4344 0.2422
vt 0.2422 0.4344
vt 0.4344 0.4344
vt 0.4244 0.5656
vt 0.2322 0.5656
vt 0.2322 0.6467
vt 0.4644 0.6567
vt 0.5456 0.6567
vt 0.5456 0.4644
vt 0.4544 0.6467
vt 0.4544 0.4544
vt 0.5356 0.4544
vt 0.4644 0.7678
vt 0.6567 0.7422
vt 0.6567 0.7678
vt 0.4644 0.8789
vt 0.6567 0.8533
vt 0.6567 0.8789
vt 0.2422 0.9900
vt 0.2678 0.9900
vt 0.2678 0.9644
vt 0.8233 0.3533
vt 0.7978 0.5456
vt 0.8233 0.5456
vt 0.6867 0.2122
vt 0.7678 0.0200
vt 0.7678 0.2122
vt 0.7978 0.8233
vt 0.8789 0.7978
vt 0.8789 0.8233
vt 0.8233 0.5756
vt 0.8233 0.7678
vt 0.7978 0.7678
vt 0.8789 0.8789
vt 0.8789 0.8533
vt 0.7978 0.8789
vt 0.4544 0.7322
vt 0.6467 0.7322
vt 0.4544 0.7578
vt 0.8789 0.0200
vt 0.7978 0.1011
vt 0.8789 0.1011
vt 0.8789 0.5756
vt 0.8533 0.7678
vt 0.8789 0.7678
vt 0.8989 0.5356
vt 0.8989 0.4544
vt 0.9244 0.4544
vt 0.8689 0.8433
vt 0.7878 0.8689
vt 0.7878 0.8433
vt 0.9344 0.5756
vt 0.9344 0.6567
vt 0.9089 0.6567
vt 0.1011 0.9344
vt 0.1011 0.9089
vt 0.0200 0.9344
vt 0.7878 0.5356
vt 0.7878 0.3433
vt 0.8133 0.3433
vt 0.9900 0.0200
vt 0.9644 0.1011
vt 0.9900 0.1011
vt 0.4344 0.9344
vt 0.4344 0.9089
vt 0.3533 0.9344
vt 0.2122 0.9644
vt 0.1867 0.9900
vt 0.2122 0.9900
vt 0.8689 0.7878
vt 0.7878 0.7878
vt 0.7878 0.8133
vt 0.9344 0.2122
vt 0.9089 0.2122
vt 0.9344 0.0200
vt 0.8233 0.9344
vt 0.8233 0.9089
vt 0.7978 0.9344
vt 0.8433 0.5656
vt 0.8433 0.7578
vt 0.8689 0.5656
vt 0.9644 0.2678
vt 0.9900 0.2678
vt 0.9900 0.2422
vt 0.8533 0.3233
vt 0.8789 0.3233
vt 0.8789 0.1311
vt 0.6567 0.0200
vt 0.5756 0.2122
vt 0.6567 0.2122
vt 0.9900 0.1867
vt 0.9900 0.2122
vt 0.9644 0.2122
vt 0.0100 0.2322
vt 0.2022 0.2322
vt 0.0100 0.4244
vt 0.2122 0.2122
vt 0.0200 0.2122
vt 0.2122 0.0200
vt 0.2122 0.5756
vt 0.2122 0.6567
vt 0.0200 0.6567
vt 0.2022 0.0100
vt 0.0100 0.0100
vt 0.0100 0.2022
vt 0.7878 0.8989
vt 0.8133 0.8989
vt 0.7878 0.9244
vt 0.8789 0.3533
vt 0.8533 0.5456
vt 0.8789 0.5456
vt 0.7678 0.7678
vt 0.7422 0.7678
vt 0.7678 0.5756
vt 0.4344 0.6867
vt 0.2422 0.7678
vt 0.4344 0.7678
vt 0.7978 0.3233
vt 0.8233 0.3233
vt 0.8233 0.1311
vt 0.4344 0.8233
vt 0.2422 0.8233
vt 0.4344 0.7978
vt 0.4644 0.4344
vt 0.5456 0.2422
vt 0.5456 0.4344
vt 0.4544 0.8433
vt 0.4544 0.8689
vt 0.6467 0.8433
vt 0.9800 0.2322
vt 0.9544 0.2578
vt 0.9544 0.2322
vt 0.7878 0.1211
vt 0.7878 0.3133
vt 0.8133 0.1211
vt 0.5756 0.6567
vt 0.6567 0.4644
vt 0.6567 0.6567
vt 0.3233 0.9089
vt 0.3233 0.9344
vt 0.2422 0.9344
vt 0.2322 0.2322
vt 0.4244 0.2322
vt 0.2322 0.4244
vt 0.4644 0.8233
vt 0.6567 0.7978
vt 0.6567 0.8233
vt 0.2422 0.5456
vt 0.4344 0.5456
vt 0.4344 0.4644
vt 0.6567 0.9089
vt 0.6567 0.9344
vt 0.5756 0.9344
vt 0.0756 0.9900
vt 0.1011 0.9644
vt 0.1011 0.9900
vt 0.5656 0.9244
vt 0.6467 0.8989
vt 0.5656 0.8989
vt 0.7678 0.8789
vt 0.6867 0.8789
vt 0.7678 0.7978
vt 0.6467 0.4544
vt 0.5656 0.6467
vt 0.5656 0.4544
vt 0.8789 0.9089
vt 0.8789 0.9344
vt 0.8533 0.9344
vt 0.5756 0.4344
vt 0.6567 0.2422
vt 0.6567 0.4344
vt 0.1567 0.9644
vt 0.1311 0.9900
vt 0.1567 0.9900
vt 0.9344 0.4344
vt 0.9089 0.4344
vt 0.9344 0.2422
vt 0.8689 0.8989
vt 0.8433 0.8989
vt 0.8433 0.9244
vt 0.4644 0.2122
vt 0.5456 0.0200
vt 0.5456 0.2122
vt 0.9344 0.7678
vt 0.9344 0.6867
vt 0.9089 0.7678
vt 0.6867 0.5456
vt 0.7678 0.5456
vt 0.7678 0.4644
vt 0.2322 0.8989
vt 0.2322 0.9244
vt 0.3133 0.8989
vt 0.7022 0.5656
vt 0.6767 0.7578
vt 0.6767 0.5656
vt 0.6767 0.4544
vt 0.6767 0.5356
vt 0.7578 0.4544
vt 0.0200 0.5456
vt 0.2122 0.5456
vt 0.2122 0.4644
vt 0.0911 0.8989
vt 0.0100 0.8989
vt 0.0100 0.9244
vt 0.5656 0.4244
vt 0.6467 0.2322
vt 0.5656 0.2322
vt 0.4244 0.4544
vt 0.2322 0.5356
vt 0.2322 0.4544
vt 0.9089 0.9344
vt 0.9344 0.9344
vt 0.9344 0.9089
vt 0.8433 0.1211
vt 0.8689 0.1211
vt 0.8433 0.3133
vt 0.2122 0.8533
vt 0.2122 0.8789
vt 0.0200 0.8789
vt 0.6767 0.8689
vt 0.6767 0.7878
vt 0.7578 0.7878
vt 0.2322 0.7578
vt 0.4244 0.6767
vt 0.2322 0.6767
vt 0.9644 0.1567
vt 0.9900 0.1567
vt 0.9900 0.1311
vt 0.4544 0.2022
vt 0.5356 0.0100
vt 0.4544 0.0100
vt 0.9089 0.8789
vt 0.9344 0.8789
vt 0.9344 0.7978
vt 0.6867 0.9344
vt 0.7678 0.9344
vt 0.7678 0.9089
vt 0.0456 0.9644
vt 0.0200 0.9900
vt 0.0456 0.9900
vt 0.8989 0.9244
vt 0.9244 0.8989
vt 0.8989 0.8989
vt 0.2022 0.8433
vt 0.0100 0.8433
vt 0.0100 0.8689
vt 0.0100 0.9800
vt 0.0356 0.9544
vt 0.0100 0.9544
vt 0.4644 0.9344
vt 0.5456 0.9344
vt 0.5456 0.9089
vt 0.8989 0.7878
vt 0.8989 0.8689
vt 0.9244 0.7878
vt 0.4544 0.8133
vt 0.6467 0.7878
vt 0.4544 0.7878
vt 0.4344 0.8533
vt 0.4344 0.8789
vt 0.2422 0.8789
vt 0.8689 0.3433
vt 0.8433 0.5356
vt 0.8433 0.3433
vt 0.4344 0.0200
vt 0.2422 0.2122
vt 0.4344 0.2122
vt 0.0911 0.9544
vt 0.0656 0.9800
vt 0.0656 0.9544
vt 0.2322 0.7878
vt 0.2322 0.8133
vt 0.4244 0.7878
vt 0.7878 0.7578
vt 0.8133 0.5656
vt 0.7878 0.5656
vt 0.6567 0.7122
vt 0.6567 0.6867
vt 0.4644 0.7122
vt 0.9544 0.1211
vt 0.9544 0.1467
vt 0.9800 0.1211
vt 0.0100 0.8133
vt 0.0100 0.7878
vt 0.2022 0.7878
vt 0.1467 0.9544
vt 0.1211 0.9544
vt 0.1211 0.9800
vt 0.9800 0.1767
vt 0.9544 0.2022
vt 0.9544 0.1767
vt 0.7322 0.7578
vt 0.7578 0.5656
vt 0.7322 0.5656
vt 0.0100 0.6767
vt 0.2022 0.6767
vt 0.0100 0.7578
vt 0.1767 0.9800
vt 0.1767 0.9544
vt 0.2022 0.9544
vt 0.8989 0.2322
vt 0.8989 0.4244
vt 0.9244 0.2322
vt 0.2122 0.9089
vt 0.1311 0.9344
vt 0.2122 0.9344
vt 0.1211 0.8989
vt 0.2022 0.8989
vt 0.1211 0.9244
vt 0.7578 0.2322
vt 0.6767 0.2322
vt 0.6767 0.4244
vt 0.6467 0.6767
vt 0.4544 0.6767
vt 0.4544 0.7022
vt 0.8989 0.5656
vt 0.9244 0.5656
vt 0.8989 0.6467
vt 0.4244 0.8989
vt 0.3433 0.9244
vt 0.3433 0.8989
vt 0.7578 0.0100
vt 0.6767 0.0100
vt 0.6767 0.2022
vt 0.4544 0.8989
vt 0.4544 0.9244
vt 0.5356 0.8989
vt 0.2578 0.9544
vt 0.2322 0.9544
vt 0.2322 0.9800
vt 0.7878 0.0911
vt 0.7878 0.0100
vt 0.8689 0.0100
vt 0.5656 0.0100
vt 0.6467 0.0100
vt 0.5656 0.2022
vt 0.6767 0.9244
vt 0.7578 0.8989
vt 0.6767 0.8989
vt 0.8989 0.7578
vt 0.8989 0.6767
vt 0.9244 0.6767
vt 0.4244 0.8433
vt 0.2322 0.8689
vt 0.2322 0.8433
vt 0.8989 0.2022
vt 0.9244 0.0100
vt 0.8989 0.0100
vt 0.4244 0.0100
vt 0.2322 0.2022
vt 0.2322 0.0100
vt 0.2022 0.5656
vt 0.0100 0.5656
vt 0.0100 0.6467
vt 0.5356 0.2322
vt 0.4544 0.2322
vt 0.4544 0.4244
vt 0.0100 0.5356
vt 0.0100 0.4544
vt 0.2022 0.4544
vt 0.9800 0.0100
vt 0.9544 0.0100
vt 0.9544 0.0911
vn 0.9993 0.0014 -0.0364
vn 0.6102 0.6016 0.5154
vn 0.6039 -0.5606 0.5666
vn 0.6040 0.4922 -0.6268
vn 0.5803 0.6146 0.5342
vn 0.5837 -0.5619 -0.5862
vn 0.5927 -0.5808 0.5580
vn 0.9996 -0.0166 -0.0209
vn 0.9689 0.0044 0.2474
vn -0.5893 0.5662 -0.5763
vn -0.0001 -0.0017 -1.0000
vn 0.0005 -0.0004 -1.0000
vn -0.8794 0.0085 -0.4760
vn -0.6240 -0.5056 -0.5958
vn -0.9948 -0.0847 -0.0574
vn -0.6587 -0.6110 0.4392
vn -0.5749 -0.5772 -0.5799
vn -0.5774 -0.5953 0.5587
vn -0.0010 0.6979 0.7161
vn -0.0124 0.0115 0.9998
vn -0.4956 -0.4744 -0.7275
vn -0.0097 -0.7554 -0.6552
vn 0.0002 -0.5451 0.8383
vn 0.0007 0.7038 -0.7104
vn 0.0040 0.7100 -0.7042
vn 0.7153 -0.0019 -0.6988
vn -0.6975 0.7081 0.1099
vn -0.6995 0.0005 -0.7146
vn -0.9971 -0.0194 0.0738
vn -0.5880 -0.5804 0.5633
vn -0.6677 -0.7107 -0.2217
vn -0.0081 0.6833 0.7301
vn -0.6306 0.0131 -0.7760
vn 0.4408 0.5485 0.7105
vn -0.3107 -0.3020 0.9012
vn -0.0173 0.2720 0.9621
vn -0.6104 0.0033 0.7920
vn 0.0121 0.0097 0.9999
vn 0.0520 -0.0022 0.9986
vn 0.6131 -0.0248 0.7896
vn -0.5452 0.5244 0.6540
vn 0.2823 -0.2954 0.9127
vn 0.5654 0.5692 -0.5968
vn 0.6199 0.0049 0.7847
vn 0.7200 0.6768 0.1532
vn 0.5661 0.3862 -0.7282
vn -0.7100 0.7041 0.0135
vn -0.5791 0.5784 0.5745
vn 0.5646 -0.5604 -0.6059
vn -0.5715 -0.7987 0.1882
vn 0.2198 0.0937 -0.9710
vn 0.2577 0.9037 -0.3417
vn -0.5023 0.6445 -0.5765
vn 0.5945 -0.5579 0.5790
vn -0.4608 -0.5130 0.7242
vn -0.4141 -0.0030 0.9102
vn 0.0038 0.0005 -1.0000
vn -0.0035 -0.6879 -0.7258
vn 0.6469 -0.7598 0.0649
vn -0.9300 -0.0028 0.3674
vn 0.6628 -0.5563 -0.5011
vn -0.8169 -0.3279 0.4745
vn -0.9771 0.0147 -0.2120
vn -0.6673 0.7295 -0.1501
vn -0.5792 0.5925 0.5599
vn 0.7792 -0.0072 0.6266
vn -0.1346 -0.6619 0.7374
vn 0.5790 -0.5780 0.5749
vn -0.5755 0.4797 -0.6623
vn -0.6502 0.0021 -0.7597
s 1
f 1/1/1 2/2/2 3/3/3
f 4/4/4 5/5/5 6/6/6
f 7/7/7 8/8/8 9/9/9
f 10/10/10 11/11/11 12/12/12
f 13/13/13 14/14/14 15/15/15
f 6/16/6 16/17/16 17/18/17
f 18/19/18 19/20/19 20/21/20
f 7/22/7 21/23/21 22/24/22
f 18/25/18 23/26/23 19/27/19
f 24/28/24 25/29/25 26/30/26
f 27/31/27 28/32/28 29/33/29
f 7/34/7 30/35/30 31/36/31
f 32/37/32 10/38/10 27/39/27
f 27/40/27 10/41/10 33/42/33
f 20/43/20 34/44/34 35/45/35
f 36/46/36 35/47/35 32/48/32
f 37/49/37 30/50/30 38/51/38
f 20/52/20 38/53/38 30/54/30
f 20/55/20 39/56/39 40/57/40
f 20/58/20 30/59/30 39/60/39
f 41/61/41 29/62/29 37/63/37
f 35/64/35 41/65/41 42/66/42
f 37/67/37 29/68/29 30/69/30
f 29/70/29 31/71/31 30/72/30
f 24/73/24 32/74/32 25/75/25
f 9/76/9 26/77/26 43/78/43
f 20/79/20 44/80/44 34/81/34
f 9/82/9 43/83/43 45/84/45
f 46/85/46 2/86/2 1/87/1
f 2/88/2 47/89/47 48/90/48
f 45/91/45 25/92/25 32/93/32
f 35/94/35 34/95/34 32/96/32
f 14/97/14 49/98/49 50/99/50
f 14/100/14 51/101/51 49/102/49
f 46/103/46 52/104/52 2/105/2
f 53/106/53 51/107/51 14/108/14
f 24/109/24 26/110/26 11/111/11
f 8/112/8 26/113/26 9/114/9
f 38/115/38 19/116/19 54/117/54
f 19/118/19 38/119/38 20/120/20
f 32/121/32 24/122/24 10/123/10
f 10/124/10 24/125/24 11/126/11
f 3/127/3 50/128/50 49/129/49
f 2/130/2 55/131/55 3/132/3
f 41/133/41 27/134/27 29/135/29
f 32/136/32 27/137/27 36/138/36
f 2/139/2 48/140/48 56/141/56
f 47/142/47 15/143/15 48/144/48
f 57/145/57 58/146/58 22/147/22
f 59/148/59 7/149/7 22/150/22
f 50/151/50 3/152/3 55/153/55
f 56/154/56 48/155/48 60/156/60
f 59/157/59 22/158/22 58/159/58
f 59/160/59 61/161/61 26/162/26
f 36/163/36 41/164/41 35/165/35
f 36/166/36 27/167/27 41/168/41
f 2/169/2 56/170/56 55/171/55
f 50/172/50 55/173/55 56/174/56
f 14/175/14 50/176/50 15/177/15
f 50/178/50 56/179/56 62/180/62
f 29/181/29 28/182/28 21/183/21
f 28/184/28 22/185/22 21/186/21
f 2/187/2 52/188/52 47/189/47
f 53/190/53 14/191/14 63/192/63
f 44/193/44 45/194/45 34/195/34
f 34/196/34 45/197/45 32/198/32
f 64/199/64 65/200/65 5/201/5
f 6/202/6 5/203/5 66/204/66
f 59/205/59 58/206/58 61/207/61
f 11/208/11 26/209/26 61/210/61
f 47/211/47 53/212/53 63/213/63
f 63/214/63 14/215/14 13/216/13
f 58/217/58 11/218/11 61/219/61
f 57/220/57 11/221/11 58/222/58
f 47/223/47 63/224/63 13/225/13
f 15/226/15 47/227/47 13/228/13
f 48/229/48 15/230/15 60/231/60
f 50/232/50 62/233/62 15/234/15
f 5/235/5 65/236/65 67/237/67
f 65/238/65 64/239/64 16/240/16
f 27/241/27 33/242/33 28/243/28
f 12/244/12 11/245/11 57/246/57
f 6/247/6 68/248/68 16/249/16
f 5/250/5 67/251/67 66/252/66
f 56/253/56 60/254/60 62/255/62
f 60/256/60 15/257/15 62/258/62
f 51/259/51 53/260/53 52/261/52
f 52/262/52 53/263/53 47/264/47
f 65/265/65 16/266/16 67/267/67
f 16/268/16 68/269/68 67/270/67
f 66/271/66 68/272/68 6/273/6
f 68/274/68 66/275/66 67/276/67
f 7/277/7 9/278/9 39/279/39
f 7/280/7 39/281/39 30/282/30
f 16/283/16 64/284/64 17/285/17
f 69/286/69 6/287/6 70/288/70
f 51/289/51 52/290/52 46/291/46
f 51/292/51 46/293/46 49/294/49
f 42/295/42 18/296/18 35/297/35
f 35/298/35 18/299/18 20/300/20
f 4/301/4 64/302/64 5/303/5
f 69/304/69 4/305/4 6/306/6
f 7/307/7 59/308/59 8/309/8
f 59/310/59 26/311/26 8/312/8
f 1/313/1 3/314/3 49/315/49
f 1/316/1 49/317/49 46/318/46
f 4/319/4 69/320/69 64/321/64
f 69/322/69 70/323/70 64/324/64
f 10/325/10 12/326/12 33/327/33
f 33/328/33 12/329/12 28/330/28
f 42/331/42 23/332/23 18/333/18
f 38/334/38 54/335/54 42/336/42
f 44/337/44 9/338/9 45/339/45
f 39/340/39 9/341/9 40/342/40
f 42/343/42 37/344/37 38/345/38
f 42/346/42 41/347/41 37/348/37
f 40/349/40 9/350/9 44/351/44
f 20/352/20 40/353/40 44/354/44
f 23/355/23 54/356/54 19/357/19
f 54/358/54 23/359/23 42/360/42
f 29/361/29 21/362/21 31/363/31
f 7/364/7 31/365/31 21/366/21
f 70/367/70 6/368/6 17/369/17
f 17/370/17 64/371/64 70/372/70
f 28/373/28 57/374/57 22/375/22
f 28/376/28 12/377/12 57/378/57
f 25/379/25 43/380/43 26/381/26
f 45/382/45 43/383/43 25/384/25
